<?xml version="1.0" encoding="UTF-8"?>
<!--Generator: Apple Native CoreSVG 341-->
<!DOCTYPE svg
PUBLIC "-//W3C//DTD SVG 1.1//EN"
       "http://www.w3.org/Graphics/SVG/1.1/DTD/svg11.dtd">
<svg version="1.1" xmlns="http://www.w3.org/2000/svg" xmlns:xlink="http://www.w3.org/1999/xlink" viewBox="0 0 975.25 588.25">
 <g>
  <rect height="588.25" opacity="0" width="975.25" x="0" y="0"/>
  <path d="M872.5 492C872.5 556 839.75 588.25 775.25 588.25L329.25 588.25C264.5 588.25 232 555.75 232 492L232 353.75L276.25 353.75L276.25 494C276.25 527 294.5 544 326 544L778.75 544C810.75 544 828.25 527 828.25 494L828.25 353.75L872.5 353.75ZM872.5 97L872.5 234.75L828.25 234.75L828.25 95C828.25 62 810.75 45 778.75 45L326 45C294.5 45 276.25 62 276.25 95L276.25 234.75L232 234.75L232 97C232 33.25 264.5 0.75 329.25 0.75L775.25 0.75C839.75 0.75 872.5 33 872.5 97Z" fill="white" fill-opacity="0.85"/>
  <path d="M179.5 546C179.5 566 163.5 582 143.5 582C123.5 582 107.5 566 107.5 546C107.5 526 123.5 510 143.5 510C163.5 510 179.5 526 179.5 546Z" fill="white" fill-opacity="0.85"/>
  <path d="M179.5 419.75C179.5 439.75 163.5 455.75 143.5 455.75C123.5 455.75 107.5 439.75 107.5 419.75C107.5 399.75 123.5 383.75 143.5 383.75C163.5 383.75 179.5 399.75 179.5 419.75Z" fill="white" fill-opacity="0.85"/>
  <path d="M179.5 167.25C179.5 187.25 163.5 203.5 143.5 203.5C123.5 203.5 107.5 187.25 107.5 167.25C107.5 147.5 123.5 131.25 143.5 131.25C163.5 131.25 179.5 147.5 179.5 167.25Z" fill="white" fill-opacity="0.85"/>
  <path d="M179.5 41C179.5 61 163.5 77.25 143.5 77.25C123.5 77.25 107.5 61 107.5 41C107.5 21.25 123.5 5 143.5 5C163.5 5 179.5 21.25 179.5 41Z" fill="white" fill-opacity="0.85"/>
  <path d="M143.25 334.75C158.5 334.75 171.5 326.5 178.25 314L872.5 314C883.5 314 892.25 305.25 892.25 294.25C892.25 283.5 883.5 274.75 872.5 274.75L178.75 274.75C172.25 261.75 158.5 253.25 143.25 253.25C121 253.25 102.5 271.5 102.5 294C102.5 316.25 121 334.75 143.25 334.75Z" fill="white" fill-opacity="0.85"/>
 </g>
</svg>
