<?xml version="1.0" encoding="UTF-8"?>
<!--Generator: Apple Native CoreSVG 341-->
<!DOCTYPE svg
PUBLIC "-//W3C//DTD SVG 1.1//EN"
       "http://www.w3.org/Graphics/SVG/1.1/DTD/svg11.dtd">
<svg version="1.1" xmlns="http://www.w3.org/2000/svg" xmlns:xlink="http://www.w3.org/1999/xlink" viewBox="0 0 807.75 605.75">
 <g>
  <rect height="605.75" opacity="0" width="807.75" x="0" y="0"/>
  <path d="M647 605L736.75 605C783.5 605 807.75 582.25 807.75 537L807.75 68C807.75 22.75 783.5 0 736.75 0L647 0C600.25 0 576.25 22.75 576.25 68L576.25 537C576.25 582.25 600.25 605 647 605ZM653.75 563.25C629.25 563.25 620 554 620 529.75L620 75.25C620 51 629.25 41.75 653.75 41.75L730.25 41.75C754.75 41.75 764 51 764 75.25L764 529.75C764 554 754.75 563.25 730.25 563.25Z" fill="white" fill-opacity="0.85"/>
  <path d="M358.75 605L448.5 605C495.5 605 519.5 582.25 519.5 537L519.5 162C519.5 116.75 495.5 93.75 448.5 93.75L358.75 93.75C312 93.75 288.25 116.75 288.25 162L288.25 537C288.25 582.25 312 605 358.75 605ZM365.75 563.25C341.25 563.25 332 554 332 529.75L332 169.25C332 145 341.25 135.5 365.75 135.5L442 135.5C466.5 135.5 475.75 145 475.75 169.25L475.75 529.75C475.75 554 466.5 563.25 442 563.25Z" fill="white" fill-opacity="0.85"/>
  <path d="M70.75 605L160.5 605C207.25 605 231.5 582.25 231.5 537L231.5 255C231.5 209.75 207.25 187 160.5 187L70.75 187C23.75 187 0 209.75 0 255L0 537C0 582.25 23.75 605 70.75 605ZM77.5 563.25C53 563.25 43.75 554 43.75 529.75L43.75 262.25C43.75 238 53 228.75 77.5 228.75L154 228.75C178.5 228.75 187.75 238 187.75 262.25L187.75 529.75C187.75 554 178.5 563.25 154 563.25Z" fill="white" fill-opacity="0.85"/>
 </g>
</svg>
