<?xml version="1.0" encoding="UTF-8"?>
<!--Generator: Apple Native CoreSVG 341-->
<!DOCTYPE svg
PUBLIC "-//W3C//DTD SVG 1.1//EN"
       "http://www.w3.org/Graphics/SVG/1.1/DTD/svg11.dtd">
<svg version="1.1" xmlns="http://www.w3.org/2000/svg" xmlns:xlink="http://www.w3.org/1999/xlink" viewBox="0 0 809.5 649.25">
 <g>
  <rect height="649.25" opacity="0" width="809.5" x="0" y="0"/>
  <path d="M79.75 286.5C123.5 286.5 159.25 250.75 159.25 206.5C159.25 163 123.5 127 79.75 127C35.75 127 0 162.75 0 206.5C0 250.75 36 286.5 79.75 286.5ZM79.75 243.25C59.75 243.25 43 226.75 43 206.5C43 186.25 59.75 170 79.75 170C99.75 170 116.25 186.75 116.25 206.5C116.25 226.75 100.25 243.25 79.75 243.25ZM404.75 159.25C448.75 159.25 484.5 123.5 484.5 79.5C484.5 35.75 448.75 0 404.75 0C360.75 0 325 35.5 325 79.5C325 123.5 361 159.25 404.75 159.25ZM404.75 116.25C384.75 116.25 368 99.5 368 79.5C368 59 384.75 43 404.75 43C424.75 43 441.25 59.5 441.25 79.5C441.25 99.5 425.25 116.25 404.75 116.25ZM729.5 286.5C773.5 286.5 809.5 250.75 809.5 206.5C809.5 162.75 773.75 127 729.5 127C685.75 127 650 163 650 206.5C650 250.75 685.75 286.5 729.5 286.5ZM729.5 243.25C709.25 243.25 693 226.75 693 206.5C693 186.75 709.75 170 729.5 170C749.75 170 766.25 186.25 766.25 206.5C766.25 226.75 749.75 243.25 729.5 243.25ZM115.25 267.5L217.25 330.25C238.75 343.5 271 343 291.25 315.75L411.5 156.75L372 139.75L260.25 287.75C253.25 297 245.5 298.75 234 291.5L137.25 232ZM694 266.75L672 231.25L577 289.75C564 297.75 555.5 295.75 547.75 285.25L437.75 139L398.25 156L519.5 316.75C538.5 342 570 343 588 331.75ZM158 504L651.5 504L651.5 462.25L158 462.25ZM80.75 273.25L147 542C159 591.5 184.75 615.5 235.75 615.5L573.75 615.5C625 615.5 650.75 591.5 662.75 542L729 273.25L690 255.5L621.25 537.5C615.25 561.75 600.25 573.75 574.25 573.75L235.5 573.75C209.5 573.75 194.5 561.75 188.5 537.5L119.75 255.5Z" fill="white" fill-opacity="0.85"/>
 </g>
</svg>
