<?xml version="1.0" encoding="UTF-8"?>
<!--Generator: Apple Native CoreSVG 341-->
<!DOCTYPE svg
PUBLIC "-//W3C//DTD SVG 1.1//EN"
       "http://www.w3.org/Graphics/SVG/1.1/DTD/svg11.dtd">
<svg version="1.1" xmlns="http://www.w3.org/2000/svg" xmlns:xlink="http://www.w3.org/1999/xlink" viewBox="0 0 587.75 587.75">
 <g>
  <rect height="587.75" opacity="0" width="587.75" x="0" y="0"/>
  <path d="M97.25 587.75L490.25 587.75C555 587.75 587.75 555 587.75 491.5L587.75 96.5C587.75 32.75 555 0 490.25 0L97.25 0C32.75 0 0 32.5 0 96.5L0 491.5C0 555.5 32.75 587.75 97.25 587.75ZM98.25 543.5C63.25 543.5 44.25 525 44.25 489L44.25 98.75C44.25 63 63.25 44.25 98.25 44.25L489.5 44.25C523.75 44.25 543.5 63 543.5 98.75L543.5 489C543.5 525 523.75 543.5 489.5 543.5Z" fill="white" fill-opacity="0.85"/>
  <path d="M259 446.75C268.25 446.75 275.75 442.5 281.25 434L434.5 193.75C437.75 188.75 441 182.5 441 176.5C441 164.25 430 156 418.5 156C411.5 156 404.5 160.5 399.5 168.5L258 393.25L187.5 305C181 296.5 174.75 294 167.25 294C155.25 294 145.75 303.75 145.75 316C145.75 322 148.25 328 152.25 333.25L235.75 434C242.75 443 249.75 446.75 259 446.75Z" fill="white" fill-opacity="0.85"/>
 </g>
</svg>
