<?xml version="1.0" encoding="UTF-8"?>
<!--Generator: Apple Native CoreSVG 341-->
<!DOCTYPE svg
PUBLIC "-//W3C//DTD SVG 1.1//EN"
       "http://www.w3.org/Graphics/SVG/1.1/DTD/svg11.dtd">
<svg version="1.1" xmlns="http://www.w3.org/2000/svg" xmlns:xlink="http://www.w3.org/1999/xlink" viewBox="0 0 651.25 651.75">
 <g>
  <rect height="651.75" opacity="0" width="651.25" x="0" y="0"/>
  <path d="M325.5 651.25C505.25 651.25 651.25 505.5 651.25 325.75C651.25 146 505.25 0 325.5 0C145.75 0 0 146 0 325.75C0 505.5 145.75 651.25 325.5 651.25ZM325.5 604.75C171.25 604.75 46.5 480 46.5 325.75C46.5 171.5 171.25 46.75 325.5 46.75C479.75 46.75 604.5 171.5 604.5 325.75C604.5 480 479.75 604.75 325.5 604.75Z" fill="white" fill-opacity="0.85"/>
  <path d="M152.5 358.5L325.25 358.5C336.25 358.5 344.75 350 344.75 339L344.75 116C344.75 105.25 336.25 96.75 325.25 96.75C314.75 96.75 306 105.25 306 116L306 319.75L152.5 319.75C141.5 319.75 133.25 328.25 133.25 339C133.25 350 141.5 358.5 152.5 358.5Z" fill="white" fill-opacity="0.85"/>
 </g>
</svg>
