<?xml version="1.0" encoding="UTF-8"?>
<!--Generator: Apple Native CoreSVG 341-->
<!DOCTYPE svg
PUBLIC "-//W3C//DTD SVG 1.1//EN"
       "http://www.w3.org/Graphics/SVG/1.1/DTD/svg11.dtd">
<svg version="1.1" xmlns="http://www.w3.org/2000/svg" xmlns:xlink="http://www.w3.org/1999/xlink" viewBox="0 0 596.75 623.25">
 <g>
  <rect height="623.25" opacity="0" width="596.75" x="0" y="0"/>
  <path d="M56.5 623.25C68.25 623.25 77.5 613.75 77.5 602L77.5 417.5C86.75 414.75 116.75 402.25 166 402.25C284.25 402.25 357.25 460.25 470.25 460.25C519 460.25 538.75 454.75 562.25 444.25C583 434.75 596.75 419.5 596.75 393.25L596.75 70C596.75 53.75 583.75 44.75 567 44.75C551.5 44.75 521.75 58.75 466.25 58.75C353 58.75 280 0.75 162 0.75C113.25 0.75 93.75 6.25 70.25 16.75C49.25 26.25 35.5 41.5 35.5 67.75L35.5 602C35.5 613.5 45.25 623.25 56.5 623.25ZM470.25 418.25C362 418.25 288 360.5 166 360.5C132.25 360.5 100.75 364.25 77.5 373L77.5 68.25C82.5 57.25 111.5 42.75 162 42.75C275.25 42.75 349.25 100.5 466.25 100.5C500.25 100.5 529 96.75 555 89.25L555 392.75C550 403.75 521 418.25 470.25 418.25Z" fill="white" fill-opacity="0.85"/>
 </g>
</svg>
