<?xml version="1.0" encoding="UTF-8"?>
<!--Generator: Apple Native CoreSVG 341-->
<!DOCTYPE svg
PUBLIC "-//W3C//DTD SVG 1.1//EN"
       "http://www.w3.org/Graphics/SVG/1.1/DTD/svg11.dtd">
<svg version="1.1" xmlns="http://www.w3.org/2000/svg" xmlns:xlink="http://www.w3.org/1999/xlink" viewBox="0 0 783 808.75">
 <g>
  <rect height="808.75" opacity="0" width="783" x="0" y="0"/>
  <path d="M595.336 89L187.911 89C189.513 66.3493 204.219 53.25 228.25 53.25L554.75 53.25C578.781 53.25 593.709 66.3493 595.336 89Z" fill="white" fill-opacity="0.85"/>
  <path d="M659.857 176.496C650.895 175.126 641.402 174.5 631.5 174.5L151.5 174.5C141.595 174.5 132.102 175.121 123.144 176.48C126.545 149.898 144.861 135 174.25 135L608.75 135C638.145 135 656.463 149.904 659.857 176.496Z" fill="white" fill-opacity="0.85"/>
  <path d="M189.5 732.75L593.75 732.75C578.75 651.5 494.25 588.25 391.5 588.25C288.75 588.25 204.5 651.5 189.5 732.75ZM391.5 539.75C447.25 539.75 491 493 491 431C491 372.25 447.25 324 391.5 324C336 324 292 372.25 292 431C292 493 336 539.75 391.5 539.75ZM151.5 754.75L631.5 754.75C696 754.75 728.75 722 728.75 658.25L728.75 325C728.75 261.25 696 228.75 631.5 228.75L151.5 228.75C86.75 228.75 54.25 261 54.25 325L54.25 658.25C54.25 722.25 86.75 754.75 151.5 754.75ZM152.25 710.5C117.5 710.5 98.5 692 98.5 656L98.5 327.25C98.5 291.5 117.5 273 152.25 273L630.75 273C665 273 684.5 291.5 684.5 327.25L684.5 656C684.5 692 665 710.5 630.75 710.5Z" fill="white" fill-opacity="0.85"/>
 </g>
</svg>
