<?xml version="1.0" encoding="UTF-8"?>
<!--Generator: Apple Native CoreSVG 341-->
<!DOCTYPE svg
PUBLIC "-//W3C//DTD SVG 1.1//EN"
       "http://www.w3.org/Graphics/SVG/1.1/DTD/svg11.dtd">
<svg version="1.1" xmlns="http://www.w3.org/2000/svg" xmlns:xlink="http://www.w3.org/1999/xlink" viewBox="0 0 757.5 791.25">
 <g>
  <rect height="791.25" opacity="0" width="757.5" x="0" y="0"/>
  <path d="M623.25 246.75L740.75 393.75C753.75 410 757.5 422.75 757.5 449.25L757.5 636.25C757.5 700 724.75 732.75 660 732.75L97.25 732.75C32.75 732.75 0 700.25 0 636.25L0 449.25C0 422.75 3.75 410 16.5 393.75L134.25 246.75C169 203.75 185.5 190.75 239.25 190.75L300.5 190.75L300.5 229.75L235.5 229.75C211 229.75 193.25 237.75 177.5 257.75L52.25 416.5C47.5 422.5 49.5 430.5 58.75 430.5L278.25 430.5C293 430.5 300.25 441.5 300.25 453.75L300.25 455.25C300.25 496.25 331.75 535.75 378.75 535.75C425.5 535.75 457.25 496.25 457.25 455.25L457.25 453.75C457.25 441.5 464.25 430.5 479.25 430.5L698.75 430.5C708 430.5 710 422.5 705.25 416.5L580 257.75C564.25 237.75 546.5 229.75 522 229.75L457 229.75L457 190.75L518.25 190.75C572 190.75 588.5 203.75 623.25 246.75ZM44.25 471L44.25 634C44.25 669.75 63.25 688.25 98.25 688.25L659.25 688.25C693.5 688.25 713 669.75 713 634L713 471L499.25 471C493 532 443 576.75 378.75 576.75C314.5 576.75 264.25 532.25 258 471Z" fill="white" fill-opacity="0.85"/>
  <path d="M269 279C257.5 279 249.25 287.25 249.25 298.5C249.25 304.25 251.5 308.75 255.75 313L362.75 417C368.25 422.5 373 424.25 378.75 424.25C384.25 424.25 389.25 422.5 394.5 417L501.5 313C505.75 308.75 508 304.25 508 298.5C508 287.25 499.25 279 488 279C482.75 279 477 281.25 473 285.75L418.75 342.75L378.75 384.75L338.5 342.75L284.25 285.75C280.25 281.25 274.25 279 269 279ZM378.75 0C366.75 0 356.75 9.75 356.75 21.5L356.75 315.75L360 395.75C360.5 406 368.5 414.5 378.75 414.5C389 414.5 397 406 397.5 395.75L400.5 315.75L400.5 21.5C400.5 9.75 390.5 0 378.75 0Z" fill="white" fill-opacity="0.85"/>
 </g>
</svg>
